<svg t="1590465848994"
     class="icon" viewBox="0 0 1026 1024" version="1.1" xmlns="http://www.w3.org/2000/svg"
  p-id="4908" data-spm-anchor-id="a313x.7781069.0.i2" width="32" height="32">
  <path d="M 375.93 511.993 c 0 -75.2752 60.8711 -136.103 136.16 -136.073 c 75.3916 0.0299529 136.043 60.951 135.983 136.586 c -0.0599059 74.9191 -61.1374 135.657 -136.329 135.574 c -75.0855 -0.0931873 -135.817 -60.941 -135.813 -136.086 Z" fill="#d81e06" p-id="4909" data-spm-anchor-id="a313x.7781069.0.i0" class=""></path>
  <path d="M 511.998 706.464 C 404.757 706.464 317.536 619.231 317.536 512 C 317.536 404.772 404.769 317.536 511.998 317.536 C 619.226 317.536 706.464 404.772 706.464 512 c -0.00423682 107.231 -87.2376 194.464 -194.466 194.464 Z m 0 -369.068 C 415.717 337.396 337.396 415.721 337.396 512 s 78.3279 174.604 174.602 174.604 c 96.2681 0 174.609 -78.3258 174.609 -174.604 S 608.279 337.396 511.998 337.396 Z" fill="#d81e06" p-id="4910"></path>
</svg>